<svg width="60" height="60" viewBox="0 0 60 60" fill="none" xmlns="http://www.w3.org/2000/svg">
<path fill-rule="evenodd" clip-rule="evenodd" d="M44.9999 14.2714L21 1.56545C19 0.506813 18 1.25938 18 1.25938L11.006 6.25508C11.0917 6.19555 12.0897 5.55422 14 6.56541L38 19.2714C42 21.389 44 23.9479 44 28.4479L44.0002 55.4479C44.0002 57.5377 43.1432 58.3707 42.8791 58.5778L42.8025 58.6324C42.8025 58.6324 42.831 58.6155 42.8791 58.5778L49.8027 53.6324C49.8027 53.6324 51.0001 52.9184 51.0001 50.4479L50.9999 23.4479C50.9999 18.9479 48.9999 16.389 44.9999 14.2714Z" fill="#007AFF"/>
<path d="M38 19.2714C42 21.3891 44 23.9479 44 28.4479L44.0002 55.4479C44.0002 57.5378 43.1432 58.3707 42.8791 58.5778L42.8025 58.6325C42.8025 58.6325 41.5 59.9773 38 57.9184L16 44.9772C12.5502 42.9479 10.0003 41.4479 10.0005 35.4479L10 8.4479C9.99999 6.82335 11 6.25941 11 6.25941L11.006 6.2551C11.0916 6.19558 12.0896 5.55425 14 6.56544L38 19.2714Z" fill="#66AFFF"/>
<path d="M32.5001 44.4479L18.5001 35.9479C13.5002 32.4477 15.0001 21.4477 20.0001 25.4479C22.5 12.9481 33.5001 24.4476 33.0001 32.9479C41 36.9482 38.5 48.9482 32.5001 44.4479Z" fill="white"/>
</svg>
