<svg width="54" height="33" viewBox="0 0 54 33" fill="none" xmlns="http://www.w3.org/2000/svg">
<path d="M41.4736 16.6314C42.3723 16.2541 44.4122 15.5788 45.448 15.5788C49.8804 15.5788 53.0525 18.7367 53.0525 23.7893C53.0525 28.1417 50.7367 30.3156 45.593 31.5788H10.1051C5.45432 31.5788 1.68408 27.8086 1.68408 23.1577V20.2104C1.68408 14.6294 7.15777 10.1051 11.3683 10.1051C12.531 10.1051 14.7367 10.5262 14.7367 10.5262C15.3683 4.84195 21.2427 0.420898 27.3683 0.420898H31.5788C37.6249 0.420898 42.5262 5.68406 42.5262 11.3683C42.5262 15.5788 41.4736 16.6314 41.4736 16.6314Z" fill="white"/>
<path d="M29.6842 18.1052L37.0526 10.9473H31.5789L25.6842 16.6736V10.9473H21.4736V26.1052H25.6842V19.9116L30.7368 26.1052H36.2105L29.6842 18.1052Z" fill="#086299"/>
</svg>
