<svg width="64" height="38" viewBox="0 0 64 38" fill="none" xmlns="http://www.w3.org/2000/svg">
<path d="M49.25 19.75C50.3173 19.3019 52.7396 18.5 53.9697 18.5C59.2331 18.5 63 22.25 63 28.25C63 33.4184 60.25 36 54.1418 37.5H12C6.47715 37.5 2 33.0228 2 27.5V24C2 17.3726 8.5 12 13.5 12C14.8807 12 17.5 12.5 17.5 12.5C18.25 5.75 25.2259 0.5 32.5 0.5H37.5C44.6797 0.5 50.5 6.75 50.5 13.5C50.5 18.5 49.25 19.75 49.25 19.75Z" fill="white"/>
<path d="M35.25 21.5L44 13H37.5L30.5 19.8V13H25.5V31H30.5V23.6452L36.5 31H43L35.25 21.5Z" fill="#086299"/>
</svg>
