<svg width="24" height="24" viewBox="0 0 24 24" fill="none" xmlns="http://www.w3.org/2000/svg">
<path d="M7.20454 18.4944C10.6314 18.4944 13.4093 15.6973 13.4093 12.2471C13.4093 8.79688 10.6312 6 7.20454 6C3.77792 6 1 8.79604 1 12.2471C1 15.6982 3.77771 18.4944 7.20454 18.4944Z" fill="#007aff"/>
<path d="M17.1136 18.1278C18.8269 18.1278 20.216 15.4951 20.216 12.2471C20.216 8.99998 18.8269 6.36639 17.1136 6.36639C15.4003 6.36639 14.0112 8.99998 14.0112 12.2471C14.0112 15.4942 15.4003 18.1278 17.1136 18.1278Z" fill="#007aff"/>
<path d="M21.9088 17.516C22.5114 17.516 23 15.1571 23 12.2471C23 9.33729 22.5118 6.97822 21.9091 6.97822C21.3063 6.97822 20.8177 9.33792 20.8177 12.2471C20.8177 15.1563 21.3063 17.516 21.9088 17.516Z" fill="#007aff"/>
</svg>
